<mxfile host="app.diagrams.net" modified="2023-09-27T12:46:33.991Z" agent="Mozilla/5.0 (Windows NT 10.0; Win64; x64) AppleWebKit/537.36 (KHTML, like Gecko) Chrome/116.0.0.0 Safari/537.36" etag="NEVVHtA9mUZuYyp-nIzu" version="21.8.2" type="device">
  <diagram name="Page-1" id="JI7DVPth9XyT30kwtKiO">
    <mxGraphModel dx="880" dy="478" grid="1" gridSize="10" guides="1" tooltips="1" connect="1" arrows="1" fold="1" page="1" pageScale="1" pageWidth="850" pageHeight="1100" math="0" shadow="0">
      <root>
        <mxCell id="0" />
        <mxCell id="1" parent="0" />
        <mxCell id="zyp6Nzn20tvFkMStunty-1" value="MESIN PENCETAK" style="text;html=1;strokeColor=none;fillColor=none;align=center;verticalAlign=middle;whiteSpace=wrap;rounded=0;" vertex="1" parent="1">
          <mxGeometry x="358" y="40" width="135" height="30" as="geometry" />
        </mxCell>
        <mxCell id="zyp6Nzn20tvFkMStunty-4" value="" style="edgeStyle=orthogonalEdgeStyle;rounded=0;orthogonalLoop=1;jettySize=auto;html=1;" edge="1" parent="1" source="zyp6Nzn20tvFkMStunty-2" target="zyp6Nzn20tvFkMStunty-3">
          <mxGeometry relative="1" as="geometry" />
        </mxCell>
        <mxCell id="zyp6Nzn20tvFkMStunty-2" value="main" style="strokeWidth=2;html=1;shape=mxgraph.flowchart.terminator;whiteSpace=wrap;" vertex="1" parent="1">
          <mxGeometry x="375" y="90" width="100" height="60" as="geometry" />
        </mxCell>
        <mxCell id="zyp6Nzn20tvFkMStunty-7" value="" style="edgeStyle=orthogonalEdgeStyle;rounded=0;orthogonalLoop=1;jettySize=auto;html=1;" edge="1" parent="1" source="zyp6Nzn20tvFkMStunty-3" target="zyp6Nzn20tvFkMStunty-5">
          <mxGeometry relative="1" as="geometry" />
        </mxCell>
        <mxCell id="zyp6Nzn20tvFkMStunty-3" value="string str" style="shape=internalStorage;whiteSpace=wrap;html=1;dx=15;dy=15;rounded=1;arcSize=8;strokeWidth=2;" vertex="1" parent="1">
          <mxGeometry x="355.5" y="180" width="140" height="70" as="geometry" />
        </mxCell>
        <mxCell id="zyp6Nzn20tvFkMStunty-9" value="" style="edgeStyle=orthogonalEdgeStyle;rounded=0;orthogonalLoop=1;jettySize=auto;html=1;" edge="1" parent="1" source="zyp6Nzn20tvFkMStunty-5" target="zyp6Nzn20tvFkMStunty-8">
          <mxGeometry relative="1" as="geometry" />
        </mxCell>
        <mxCell id="zyp6Nzn20tvFkMStunty-5" value="getline (cin, str)" style="shape=parallelogram;html=1;strokeWidth=2;perimeter=parallelogramPerimeter;whiteSpace=wrap;rounded=1;arcSize=12;size=0.23;" vertex="1" parent="1">
          <mxGeometry x="355.5" y="280" width="140" height="60" as="geometry" />
        </mxCell>
        <mxCell id="zyp6Nzn20tvFkMStunty-16" value="" style="edgeStyle=orthogonalEdgeStyle;rounded=0;orthogonalLoop=1;jettySize=auto;html=1;" edge="1" parent="1" source="zyp6Nzn20tvFkMStunty-8" target="zyp6Nzn20tvFkMStunty-10">
          <mxGeometry relative="1" as="geometry" />
        </mxCell>
        <mxCell id="zyp6Nzn20tvFkMStunty-8" value="output str" style="shape=parallelogram;html=1;strokeWidth=2;perimeter=parallelogramPerimeter;whiteSpace=wrap;rounded=1;arcSize=12;size=0.23;" vertex="1" parent="1">
          <mxGeometry x="350" y="370" width="150" height="60" as="geometry" />
        </mxCell>
        <mxCell id="zyp6Nzn20tvFkMStunty-17" value="" style="edgeStyle=orthogonalEdgeStyle;rounded=0;orthogonalLoop=1;jettySize=auto;html=1;" edge="1" parent="1" source="zyp6Nzn20tvFkMStunty-10" target="zyp6Nzn20tvFkMStunty-11">
          <mxGeometry relative="1" as="geometry" />
        </mxCell>
        <mxCell id="zyp6Nzn20tvFkMStunty-10" value="string str2" style="shape=internalStorage;whiteSpace=wrap;html=1;dx=15;dy=15;rounded=1;arcSize=8;strokeWidth=2;" vertex="1" parent="1">
          <mxGeometry x="355" y="470" width="140" height="70" as="geometry" />
        </mxCell>
        <mxCell id="zyp6Nzn20tvFkMStunty-18" value="" style="edgeStyle=orthogonalEdgeStyle;rounded=0;orthogonalLoop=1;jettySize=auto;html=1;" edge="1" parent="1" source="zyp6Nzn20tvFkMStunty-11" target="zyp6Nzn20tvFkMStunty-12">
          <mxGeometry relative="1" as="geometry" />
        </mxCell>
        <mxCell id="zyp6Nzn20tvFkMStunty-11" value="getline (cin, str)" style="shape=parallelogram;html=1;strokeWidth=2;perimeter=parallelogramPerimeter;whiteSpace=wrap;rounded=1;arcSize=12;size=0.23;" vertex="1" parent="1">
          <mxGeometry x="355" y="580" width="140" height="60" as="geometry" />
        </mxCell>
        <mxCell id="zyp6Nzn20tvFkMStunty-19" value="" style="edgeStyle=orthogonalEdgeStyle;rounded=0;orthogonalLoop=1;jettySize=auto;html=1;" edge="1" parent="1" source="zyp6Nzn20tvFkMStunty-12" target="zyp6Nzn20tvFkMStunty-13">
          <mxGeometry relative="1" as="geometry" />
        </mxCell>
        <mxCell id="zyp6Nzn20tvFkMStunty-12" value="output str" style="shape=parallelogram;html=1;strokeWidth=2;perimeter=parallelogramPerimeter;whiteSpace=wrap;rounded=1;arcSize=12;size=0.23;" vertex="1" parent="1">
          <mxGeometry x="350" y="680" width="150" height="60" as="geometry" />
        </mxCell>
        <mxCell id="zyp6Nzn20tvFkMStunty-20" value="" style="edgeStyle=orthogonalEdgeStyle;rounded=0;orthogonalLoop=1;jettySize=auto;html=1;" edge="1" parent="1" source="zyp6Nzn20tvFkMStunty-13" target="zyp6Nzn20tvFkMStunty-14">
          <mxGeometry relative="1" as="geometry" />
        </mxCell>
        <mxCell id="zyp6Nzn20tvFkMStunty-13" value="string str3" style="shape=internalStorage;whiteSpace=wrap;html=1;dx=15;dy=15;rounded=1;arcSize=8;strokeWidth=2;" vertex="1" parent="1">
          <mxGeometry x="354" y="780" width="140" height="70" as="geometry" />
        </mxCell>
        <mxCell id="zyp6Nzn20tvFkMStunty-21" value="" style="edgeStyle=orthogonalEdgeStyle;rounded=0;orthogonalLoop=1;jettySize=auto;html=1;" edge="1" parent="1" source="zyp6Nzn20tvFkMStunty-14" target="zyp6Nzn20tvFkMStunty-15">
          <mxGeometry relative="1" as="geometry" />
        </mxCell>
        <mxCell id="zyp6Nzn20tvFkMStunty-14" value="getline (cin, str)" style="shape=parallelogram;html=1;strokeWidth=2;perimeter=parallelogramPerimeter;whiteSpace=wrap;rounded=1;arcSize=12;size=0.23;" vertex="1" parent="1">
          <mxGeometry x="354" y="890" width="140" height="60" as="geometry" />
        </mxCell>
        <mxCell id="zyp6Nzn20tvFkMStunty-28" value="" style="edgeStyle=orthogonalEdgeStyle;rounded=0;orthogonalLoop=1;jettySize=auto;html=1;" edge="1" parent="1" source="zyp6Nzn20tvFkMStunty-15" target="zyp6Nzn20tvFkMStunty-22">
          <mxGeometry relative="1" as="geometry" />
        </mxCell>
        <mxCell id="zyp6Nzn20tvFkMStunty-15" value="output str" style="shape=parallelogram;html=1;strokeWidth=2;perimeter=parallelogramPerimeter;whiteSpace=wrap;rounded=1;arcSize=12;size=0.23;" vertex="1" parent="1">
          <mxGeometry x="349" y="1000" width="150" height="60" as="geometry" />
        </mxCell>
        <mxCell id="zyp6Nzn20tvFkMStunty-29" value="" style="edgeStyle=orthogonalEdgeStyle;rounded=0;orthogonalLoop=1;jettySize=auto;html=1;" edge="1" parent="1" source="zyp6Nzn20tvFkMStunty-22" target="zyp6Nzn20tvFkMStunty-24">
          <mxGeometry relative="1" as="geometry" />
        </mxCell>
        <mxCell id="zyp6Nzn20tvFkMStunty-22" value="string str4" style="shape=internalStorage;whiteSpace=wrap;html=1;dx=15;dy=15;rounded=1;arcSize=8;strokeWidth=2;" vertex="1" parent="1">
          <mxGeometry x="354" y="1100" width="140" height="70" as="geometry" />
        </mxCell>
        <mxCell id="zyp6Nzn20tvFkMStunty-32" value="" style="edgeStyle=orthogonalEdgeStyle;rounded=0;orthogonalLoop=1;jettySize=auto;html=1;" edge="1" parent="1" source="zyp6Nzn20tvFkMStunty-23" target="zyp6Nzn20tvFkMStunty-26">
          <mxGeometry relative="1" as="geometry" />
        </mxCell>
        <mxCell id="zyp6Nzn20tvFkMStunty-23" value="string str5" style="shape=internalStorage;whiteSpace=wrap;html=1;dx=15;dy=15;rounded=1;arcSize=8;strokeWidth=2;" vertex="1" parent="1">
          <mxGeometry x="354" y="1440" width="140" height="70" as="geometry" />
        </mxCell>
        <mxCell id="zyp6Nzn20tvFkMStunty-30" value="" style="edgeStyle=orthogonalEdgeStyle;rounded=0;orthogonalLoop=1;jettySize=auto;html=1;" edge="1" parent="1" source="zyp6Nzn20tvFkMStunty-24" target="zyp6Nzn20tvFkMStunty-25">
          <mxGeometry relative="1" as="geometry" />
        </mxCell>
        <mxCell id="zyp6Nzn20tvFkMStunty-24" value="getline (cin, str)" style="shape=parallelogram;html=1;strokeWidth=2;perimeter=parallelogramPerimeter;whiteSpace=wrap;rounded=1;arcSize=12;size=0.23;" vertex="1" parent="1">
          <mxGeometry x="354" y="1220" width="140" height="60" as="geometry" />
        </mxCell>
        <mxCell id="zyp6Nzn20tvFkMStunty-31" value="" style="edgeStyle=orthogonalEdgeStyle;rounded=0;orthogonalLoop=1;jettySize=auto;html=1;" edge="1" parent="1" source="zyp6Nzn20tvFkMStunty-25" target="zyp6Nzn20tvFkMStunty-23">
          <mxGeometry relative="1" as="geometry" />
        </mxCell>
        <mxCell id="zyp6Nzn20tvFkMStunty-25" value="output str" style="shape=parallelogram;html=1;strokeWidth=2;perimeter=parallelogramPerimeter;whiteSpace=wrap;rounded=1;arcSize=12;size=0.23;" vertex="1" parent="1">
          <mxGeometry x="349" y="1330" width="150" height="60" as="geometry" />
        </mxCell>
        <mxCell id="zyp6Nzn20tvFkMStunty-33" value="" style="edgeStyle=orthogonalEdgeStyle;rounded=0;orthogonalLoop=1;jettySize=auto;html=1;" edge="1" parent="1" source="zyp6Nzn20tvFkMStunty-26" target="zyp6Nzn20tvFkMStunty-27">
          <mxGeometry relative="1" as="geometry" />
        </mxCell>
        <mxCell id="zyp6Nzn20tvFkMStunty-26" value="getline (cin, str)" style="shape=parallelogram;html=1;strokeWidth=2;perimeter=parallelogramPerimeter;whiteSpace=wrap;rounded=1;arcSize=12;size=0.23;" vertex="1" parent="1">
          <mxGeometry x="354" y="1560" width="140" height="60" as="geometry" />
        </mxCell>
        <mxCell id="zyp6Nzn20tvFkMStunty-35" value="" style="edgeStyle=orthogonalEdgeStyle;rounded=0;orthogonalLoop=1;jettySize=auto;html=1;" edge="1" parent="1" source="zyp6Nzn20tvFkMStunty-27" target="zyp6Nzn20tvFkMStunty-34">
          <mxGeometry relative="1" as="geometry" />
        </mxCell>
        <mxCell id="zyp6Nzn20tvFkMStunty-27" value="output str" style="shape=parallelogram;html=1;strokeWidth=2;perimeter=parallelogramPerimeter;whiteSpace=wrap;rounded=1;arcSize=12;size=0.23;" vertex="1" parent="1">
          <mxGeometry x="349" y="1660" width="150" height="60" as="geometry" />
        </mxCell>
        <mxCell id="zyp6Nzn20tvFkMStunty-34" value="end" style="strokeWidth=2;html=1;shape=mxgraph.flowchart.terminator;whiteSpace=wrap;" vertex="1" parent="1">
          <mxGeometry x="374.5" y="1750" width="100" height="60" as="geometry" />
        </mxCell>
      </root>
    </mxGraphModel>
  </diagram>
</mxfile>
